<?xml version="1.0" standalone="no"?>
<!DOCTYPE svg PUBLIC "-//W3C//DTD SVG 20010904//EN"
 "http://www.w3.org/TR/2001/REC-SVG-20010904/DTD/svg10.dtd">
<svg version="1.0" xmlns="http://www.w3.org/2000/svg"
 width="1119.000000pt" height="1119.000000pt" viewBox="0 0 1119.000000 1119.000000"
 preserveAspectRatio="xMidYMid meet">
<metadata>
Created by potrace 1.14, written by Peter Selinger 2001-2017
</metadata>
<g transform="translate(0.000000,1119.000000) scale(0.100000,-0.100000)"
fill="#000000" stroke="none">
<path d="M5574 10836 c-40 -19 -105 -85 -129 -132 -19 -35 -115 -188 -132
-209 -4 -5 -16 -26 -26 -45 -18 -35 -57 -102 -77 -130 -5 -8 -38 -62 -71 -120
-34 -58 -72 -121 -84 -140 -12 -19 -44 -73 -71 -118 -27 -46 -58 -98 -68 -115
-22 -36 -43 -72 -103 -179 -23 -41 -48 -80 -56 -86 -8 -7 -22 -29 -31 -51
l-18 -39 -31 17 c-44 22 -165 20 -237 -4 -49 -16 -160 -80 -168 -96 -1 -3 -9
-15 -17 -25 -14 -18 -15 -18 -37 8 -28 33 -85 73 -152 105 -68 34 -177 33
-303 -3 -82 -23 -143 -64 -186 -125 -54 -77 -71 -119 -57 -144 8 -15 8 -29 0
-50 -9 -21 -14 -222 -17 -671 l-6 -641 -46 9 c-107 20 -344 -5 -447 -48 -117
-49 -215 -108 -290 -177 -87 -79 -187 -224 -232 -337 -30 -75 -62 -205 -62
-252 0 -35 -2 -38 -28 -38 -15 0 -34 6 -41 13 -11 9 -13 9 -7 0 6 -10 -131
-13 -668 -13 l-674 0 -30 -25 c-17 -14 -34 -25 -40 -25 -21 0 -110 -165 -112
-206 0 -10 -1 -44 -2 -74 -3 -80 7 -138 35 -200 24 -53 88 -130 108 -130 19 0
8 -29 -21 -54 -34 -28 -103 -155 -125 -230 -26 -88 -20 -139 28 -229 23 -44
59 -96 79 -115 l37 -35 -27 -21 c-38 -29 -47 -42 -89 -126 -32 -65 -37 -85
-37 -145 0 -128 23 -184 113 -275 35 -35 59 -66 53 -68 -14 -4 -80 -69 -97
-96 -13 -20 -41 -101 -50 -145 -2 -9 -9 -37 -15 -63 -11 -41 -9 -55 10 -117
13 -39 33 -84 46 -99 13 -15 24 -32 24 -38 0 -6 16 -29 36 -52 19 -23 31 -42
26 -42 -25 0 -91 -86 -113 -148 -30 -83 -34 -251 -8 -292 8 -14 21 -44 29 -68
13 -40 77 -112 100 -112 22 0 8 -26 -19 -37 -23 -8 -40 -32 -86 -124 -56 -112
-56 -115 -51 -181 3 -36 13 -90 22 -120 17 -51 61 -129 77 -136 4 -2 7 -10 7
-18 0 -8 4 -14 8 -14 5 0 16 -6 26 -13 16 -12 14 -16 -21 -53 -21 -22 -55 -72
-76 -112 -45 -85 -48 -131 -22 -302 5 -33 52 -135 78 -167 14 -19 118 -87 155
-102 25 -11 35 -11 47 -1 11 9 22 9 51 0 27 -9 215 -14 672 -19 l634 -6 17
-55 c19 -61 69 -164 102 -213 42 -61 157 -165 231 -208 40 -24 75 -47 76 -51
2 -5 78 -8 168 -8 l164 0 0 -717 0 -718 30 -43 c60 -89 175 -144 303 -145 84
0 99 2 175 25 47 14 137 82 147 111 9 26 27 21 66 -19 20 -21 74 -55 129 -81
86 -41 102 -46 175 -47 63 -1 88 3 120 20 85 44 116 65 145 96 l29 33 35 -36
c19 -20 69 -53 113 -75 73 -36 84 -39 163 -39 113 1 179 30 263 118 36 37 62
57 65 49 4 -14 85 -92 109 -105 8 -5 60 -22 116 -38 75 -22 113 -28 142 -23
52 8 112 32 150 59 17 11 44 28 60 36 17 7 37 23 47 34 16 20 17 19 63 -27 26
-27 52 -48 58 -48 7 0 25 -7 40 -15 75 -39 236 -44 312 -10 22 9 45 18 50 20
49 11 96 48 120 95 l18 34 18 -37 c16 -30 37 -45 131 -92 109 -55 114 -56 178
-51 68 5 200 41 200 55 0 4 18 17 39 29 22 13 49 35 60 50 18 23 23 25 31 12
19 -30 26 -36 75 -67 103 -65 137 -75 243 -70 167 8 275 57 340 155 56 85 72
129 51 143 -9 5 -9 15 0 40 9 25 14 207 18 661 l6 628 237 0 c169 0 249 4 281
13 169 52 319 182 402 350 35 71 74 187 80 239 1 15 5 29 8 32 3 3 149 7 324
10 176 3 502 8 725 12 l405 7 45 29 c39 26 104 103 106 125 0 5 8 25 17 46 36
82 27 234 -18 332 -23 49 -87 125 -106 125 -19 0 -8 26 26 59 19 19 56 77 82
130 43 89 46 102 47 176 0 58 -4 90 -17 115 -43 84 -74 130 -99 150 -27 20
-38 50 -19 50 19 0 61 55 97 128 33 65 38 88 39 147 3 117 -23 181 -107 267
-44 45 -66 74 -58 76 18 6 88 81 104 112 28 52 67 219 60 258 -10 54 -34 112
-66 156 -15 21 -28 44 -28 51 0 6 -11 22 -25 35 -26 24 -33 50 -14 50 25 0 80
78 101 145 30 91 33 246 5 288 -9 14 -17 31 -17 37 0 32 -44 99 -80 121 -47
29 -50 41 -11 56 23 8 40 32 86 124 56 112 57 115 52 179 -7 82 -30 156 -62
204 -14 20 -25 41 -25 46 0 5 -17 22 -37 39 -37 31 -37 31 -17 46 58 40 144
209 138 270 -17 173 -20 186 -56 260 -39 78 -42 81 -118 130 -71 46 -108 59
-125 45 -7 -6 -24 -6 -46 1 -21 6 -272 12 -666 16 l-631 6 -7 45 c-10 69 -56
189 -102 267 -75 128 -197 242 -328 308 -61 30 -193 73 -257 82 l-48 7 0 737
0 737 -32 45 c-18 24 -37 47 -43 51 -5 4 -21 15 -34 25 -26 19 -103 53 -136
58 -113 20 -200 10 -290 -31 -49 -22 -125 -86 -125 -105 0 -20 -28 -8 -58 25
-32 35 -166 106 -240 125 -60 17 -132 11 -179 -13 -95 -49 -125 -68 -150 -96
-25 -29 -53 -40 -53 -21 0 20 -57 62 -131 98 -72 35 -81 43 -111 96 -18 32
-43 75 -55 95 -13 20 -26 43 -29 50 -13 27 -104 177 -113 189 -6 6 -18 30 -28
52 -10 23 -21 41 -25 41 -5 0 -8 7 -8 15 0 8 -4 15 -8 15 -5 0 -14 16 -22 35
-7 19 -19 36 -27 39 -7 3 -13 15 -13 26 0 11 -4 20 -9 20 -5 0 -17 17 -26 38
-10 20 -28 51 -41 69 -13 17 -24 36 -24 42 0 6 -4 11 -9 11 -5 0 -11 8 -15 18
-3 9 -14 29 -23 44 -10 15 -41 65 -70 110 -29 46 -56 88 -60 93 -4 6 -15 24
-23 40 -8 17 -19 35 -25 42 -5 6 -30 42 -53 80 -62 97 -88 115 -170 119 -43 2
-78 -1 -98 -10z"/>
<path d="M10852 5815 c0 -16 2 -22 5 -12 2 9 2 23 0 30 -3 6 -5 -1 -5 -18z"/>
</g>
</svg>
